HIERARCHY
ROOT joint_Root
{
	OFFSET 0.0 0.0 0.0
	CHANNELS 6 Xposition Yposition Zposition Zrotation Xrotation Yrotation 
	JOINT Hips
	{
		OFFSET -17.1583 93.1646 452.98
		CHANNELS 6 Xposition Yposition Zposition Zrotation Xrotation Yrotation 
		JOINT Spine
		{
			OFFSET 15.7357 0.0 0.0
			CHANNELS 6 Xposition Yposition Zposition Zrotation Xrotation Yrotation 
			JOINT Chest
			{
				OFFSET 8.98455 -0.406207 0.0
				CHANNELS 6 Xposition Yposition Zposition Zrotation Xrotation Yrotation 
				JOINT Neck
				{
					OFFSET 16.3773 0.0 0.0
					CHANNELS 6 Xposition Yposition Zposition Zrotation Xrotation Yrotation 
					JOINT Head
					{
						OFFSET 6.45672 0.0 0.0
						CHANNELS 6 Xposition Yposition Zposition Zrotation Xrotation Yrotation 
						End Site
						{
							OFFSET 0.0 0.0 0.0
						}
					}
				}
				JOINT Shoulder_L
				{
					OFFSET 12.9942 -0.242716 4.98039
					CHANNELS 6 Xposition Yposition Zposition Zrotation Xrotation Yrotation 
					JOINT UpperArm_L
					{
						OFFSET 5.34809 0.0 0.0
						CHANNELS 6 Xposition Yposition Zposition Zrotation Xrotation Yrotation 
						JOINT LowerArm_L
						{
							OFFSET 24.3286 1.87007e-05 0.0
							CHANNELS 6 Xposition Yposition Zposition Zrotation Xrotation Yrotation 
							JOINT Hand_L
							{
								OFFSET 22.2916 0.0 0.0
								CHANNELS 6 Xposition Yposition Zposition Zrotation Xrotation Yrotation 
								End Site
								{
									OFFSET 0.0 0.0 0.0
								}
							}
						}
					}
				}
				JOINT Shoulder_R
				{
					OFFSET 12.9945 -0.242716 -4.98039
					CHANNELS 6 Xposition Yposition Zposition Zrotation Xrotation Yrotation 
					JOINT UpperArm_R
					{
						OFFSET -5.34813 0.0 0.0
						CHANNELS 6 Xposition Yposition Zposition Zrotation Xrotation Yrotation 
						JOINT LowerArm_R
						{
							OFFSET -24.3289 0.000322201 0.0
							CHANNELS 6 Xposition Yposition Zposition Zrotation Xrotation Yrotation 
							JOINT Hand_R
							{
								OFFSET -22.2915 -0.000108084 0.0
								CHANNELS 6 Xposition Yposition Zposition Zrotation Xrotation Yrotation 
								End Site
								{
									OFFSET 0.0 0.0 0.0
								}
							}
						}
					}
				}
			}
		}
		JOINT UpperLeg_L
		{
			OFFSET -2.19248 -6.46944 0.0
			CHANNELS 6 Xposition Yposition Zposition Zrotation Xrotation Yrotation 
			JOINT LowerLeg_L
			{
				OFFSET 39.0811 0.0 -1.23785e-05
				CHANNELS 6 Xposition Yposition Zposition Zrotation Xrotation Yrotation 
				JOINT Foot_L
				{
					OFFSET 40.9854 0.0 -1.26872e-05
					CHANNELS 6 Xposition Yposition Zposition Zrotation Xrotation Yrotation 
					JOINT Toes_L
					{
						OFFSET 11.7543 0.0 0.0
						CHANNELS 6 Xposition Yposition Zposition Zrotation Xrotation Yrotation 
						End Site
						{
							OFFSET 0.0 0.0 0.0
						}
					}
				}
			}
		}
		JOINT UpperLeg_R
		{
			OFFSET -2.19251 6.46944 0.0
			CHANNELS 6 Xposition Yposition Zposition Zrotation Xrotation Yrotation 
			JOINT LowerLeg_R
			{
				OFFSET -39.0811 -0.00228153 -0.0401928
				CHANNELS 6 Xposition Yposition Zposition Zrotation Xrotation Yrotation 
				JOINT Foot_R
				{
					OFFSET -40.9854 0.0 0.0
					CHANNELS 6 Xposition Yposition Zposition Zrotation Xrotation Yrotation 
					JOINT Toes_R
					{
						OFFSET -11.7543 0.0 0.0
						CHANNELS 6 Xposition Yposition Zposition Zrotation Xrotation Yrotation 
						End Site
						{
							OFFSET 0.0 0.0 0.0
						}
					}
				}
			}
		}
	}
}
MOTION
Frames:	7
Frame Time:	0.0333333
0.000000 0.000000 0.000000 0.000000 0.000000 -0.000000 0.614354 92.876100 0.569072 87.118000 0.510128 0.770354 15.735700 0.000005 -0.000001 71.503100 87.599900 -69.923900 8.984550 -0.406207 -0.000000 -3.189330 -1.673110 3.112500 16.377300 -0.000001 -0.000001 4.862080 1.470900 -3.632790 6.456720 -0.000001 -0.000000 3.174300 -0.006644 -1.641600 12.994200 -0.242716 4.980390 -92.560700 7.549590 -71.201800 5.348090 -0.000007 -0.000001 -72.552500 15.682300 2.312470 24.328600 0.000019 0.000005 14.374100 27.490000 -29.038700 22.291600 -0.000001 0.000005 -2.126000 5.000620 7.306360 12.994500 -0.242716 -4.980390 88.532900 4.795730 -72.968000 -5.348130 -0.000001 -0.000004 -70.862500 30.296200 -3.892770 -24.328900 0.000322 -0.000009 2.174020 7.242400 -16.765900 -22.291500 -0.000108 -0.000004 1.599280 5.224660 2.093320 -2.192480 -6.469440 -0.000000 -177.316000 1.896820 -1.881230 39.081100 -0.000007 -0.000012 0.199594 -0.577496 19.066600 40.985400 -0.000006 -0.000013 3.592220 9.616070 -72.342900 11.754300 -0.000000 0.000003 -0.000365 0.173558 -9.537050 -2.192510 6.469440 -0.000001 -176.244000 5.316720 -177.852000 -39.081100 -0.002282 -0.040193 0.018758 -0.070563 12.329300 -40.985400 0.000008 0.000006 -2.565550 1.642480 -68.826700 -11.754300 -0.000006 -0.000006 -0.009962 0.271018 -5.562730
0.000000 0.000000 0.000000 0.000000 0.000000 -0.000000 0.549316 92.891100 0.534207 87.146300 0.469943 0.692479 15.735700 0.000005 -0.000001 71.670400 87.608200 -70.085200 8.984550 -0.406207 -0.000000 -3.200820 -1.655320 3.124930 16.377300 -0.000001 -0.000001 4.764180 1.439380 -3.731300 6.456720 -0.000001 -0.000000 2.976910 -0.123794 -1.809080 12.994200 -0.242716 4.980390 -92.584700 7.635780 -71.235900 5.348090 -0.000007 -0.000001 -71.942800 15.653300 2.236950 24.328600 0.000019 0.000005 14.607300 27.457800 -29.475400 22.291600 -0.000001 0.000005 -2.279530 5.011460 7.074710 12.994500 -0.242716 -4.980390 88.519700 4.825450 -72.922900 -5.348130 -0.000001 -0.000004 -70.789300 30.311100 -3.904750 -24.328900 0.000322 -0.000009 2.141880 7.136800 -16.761400 -22.291500 -0.000108 -0.000004 1.635340 5.226590 2.043550 -2.192480 -6.469440 -0.000000 -177.283000 1.808520 -1.923440 39.081100 -0.000007 -0.000012 0.195656 -0.569555 18.959300 40.985400 -0.000006 -0.000013 3.535950 9.669800 -72.325100 11.754300 -0.000000 0.000003 -0.000626 0.177563 -9.374360 -2.192510 6.469440 -0.000001 -176.213000 5.245410 -177.895000 -39.081100 -0.002282 -0.040193 0.018474 -0.069873 12.224700 -40.985400 0.000008 0.000006 -2.514030 1.598650 -68.808500 -11.754300 -0.000006 -0.000006 -0.010192 0.272733 -5.492590
0.000000 0.000000 0.000000 0.000000 0.000000 -0.000000 0.454926 92.901200 0.495788 87.123000 0.468556 0.539224 15.735700 0.000005 -0.000001 71.145200 87.612400 -69.526600 8.984550 -0.406207 -0.000000 -3.221690 -1.697610 3.190150 16.377300 -0.000001 -0.000001 4.501380 1.350260 -3.782730 6.456720 -0.000001 -0.000000 2.758100 -0.252188 -2.247240 12.994200 -0.242716 4.980390 -92.649900 7.797660 -71.163900 5.348090 -0.000007 -0.000001 -71.162900 15.165800 2.129720 24.328600 0.000019 0.000005 14.930700 27.407000 -30.083200 22.291600 -0.000001 0.000005 -2.583400 5.028840 6.699780 12.994500 -0.242716 -4.980390 88.513800 4.843870 -72.920600 -5.348130 -0.000001 -0.000004 -70.702900 30.315700 -3.980480 -24.328900 0.000322 -0.000009 2.156070 7.170670 -16.791400 -22.291500 -0.000108 -0.000004 1.590140 5.224980 2.085000 -2.192480 -6.469440 -0.000000 -177.180000 1.748320 -2.108000 39.081100 -0.000007 -0.000012 0.195900 -0.570965 18.937600 40.985400 -0.000006 -0.000013 3.473720 9.745140 -72.233500 11.754300 -0.000000 0.000003 -0.000424 0.174486 -9.499360 -2.192510 6.469440 -0.000001 -176.120000 5.202220 -178.050000 -39.081100 -0.002282 -0.040193 0.017547 -0.066041 12.144600 -40.985400 0.000008 0.000006 -2.568910 1.609620 -68.683300 -11.754300 -0.000006 -0.000006 -0.009993 0.271255 -5.553030
0.000000 0.000000 0.000000 0.000000 0.000000 -0.000000 0.359681 92.933100 0.418848 87.141900 0.446610 0.366655 15.735700 0.000005 -0.000001 71.202900 87.636000 -69.574600 8.984550 -0.406207 -0.000000 -3.264870 -1.679390 3.209660 16.377300 -0.000001 -0.000001 4.278330 1.178710 -3.858680 6.456720 -0.000001 -0.000000 2.306190 -0.512809 -2.840970 12.994200 -0.242716 4.980390 -92.699700 7.926110 -71.122000 5.348090 -0.000007 -0.000001 -70.362200 13.925200 2.164900 24.328600 0.000019 0.000005 15.652400 27.413300 -31.323500 22.291600 -0.000001 0.000005 -2.515270 5.031390 6.644590 12.994500 -0.242716 -4.980390 88.494900 4.885290 -72.853300 -5.348130 -0.000001 -0.000004 -70.646800 30.255300 -3.983360 -24.328900 0.000322 -0.000009 2.162440 7.159190 -16.863600 -22.291500 -0.000108 -0.000004 1.600900 5.224620 2.094270 -2.192480 -6.469440 -0.000000 -177.115000 1.680080 -2.225540 39.081100 -0.000007 -0.000012 0.191543 -0.564550 18.741600 40.985400 -0.000006 -0.000013 3.378870 9.785230 -72.190600 11.754300 -0.000000 0.000003 -0.000579 0.176860 -9.402900 -2.192510 6.469440 -0.000001 -176.051000 5.045240 -178.169000 -39.081100 -0.002282 -0.040193 0.015465 -0.057454 11.920700 -40.985400 0.000008 0.000006 -2.693750 1.499030 -68.514500 -11.754300 -0.000006 -0.000006 -0.009960 0.271004 -5.563290
0.000000 0.000000 0.000000 0.000000 0.000000 -0.000000 0.235979 92.949200 0.332809 87.155900 0.464497 0.155618 15.735700 0.000005 -0.000001 70.785300 87.656600 -69.142500 8.984550 -0.406207 -0.000000 -3.314430 -1.700520 3.237410 16.377300 -0.000001 -0.000001 3.924690 0.996166 -4.043450 6.456720 -0.000001 -0.000000 1.852410 -0.862132 -3.512130 12.994200 -0.242716 4.980390 -92.732900 7.975910 -71.016300 5.348090 -0.000007 -0.000001 -69.498400 12.639200 2.316390 24.328600 0.000019 0.000005 17.470200 27.946500 -33.882700 22.291600 -0.000001 0.000005 -2.223720 5.023340 6.819190 12.994500 -0.242716 -4.980390 88.493800 4.900890 -72.892800 -5.348130 -0.000001 -0.000004 -70.654400 30.096500 -3.950440 -24.328900 0.000322 -0.000009 2.146540 7.066780 -16.951900 -22.291500 -0.000108 -0.000004 1.654590 5.225170 2.080010 -2.192480 -6.469440 -0.000000 -177.018000 1.613870 -2.477150 39.081100 -0.000007 -0.000012 0.188997 -0.558944 18.682400 40.985400 -0.000006 -0.000013 3.289030 9.897230 -72.096400 11.754300 -0.000000 0.000003 -0.000572 0.176749 -9.407420 -2.192510 6.469440 -0.000001 -175.914000 4.878070 -178.390000 -39.081100 -0.002282 -0.040193 0.016427 -0.062690 11.794800 -40.985400 0.000008 0.000006 -2.523090 1.236360 -68.402500 -11.754300 -0.000006 -0.000006 -0.009918 0.270692 -5.576060
0.000000 0.000000 0.000000 0.000000 0.000000 -0.000000 0.090667 92.977700 0.243187 87.129400 0.543739 -0.031721 15.735700 0.000005 -0.000001 71.019800 87.673200 -69.357000 8.984550 -0.406207 -0.000000 -3.339740 -1.673830 3.277790 16.377300 -0.000001 -0.000001 3.531600 0.740809 -4.251440 6.456720 -0.000001 -0.000000 1.317340 -1.357580 -4.355010 12.994200 -0.242716 4.980390 -92.772800 8.066250 -70.957700 5.348090 -0.000007 -0.000001 -68.433400 11.052600 2.558450 24.328600 0.000019 0.000005 20.070500 28.182600 -37.725600 22.291600 -0.000001 0.000005 -1.868960 5.024790 6.787340 12.994500 -0.242716 -4.980390 88.489100 4.909570 -72.870600 -5.348130 -0.000001 -0.000004 -70.657400 30.102100 -3.876720 -24.328900 0.000322 -0.000009 2.134420 6.957670 -17.109500 -22.291500 -0.000108 -0.000004 1.639060 5.224740 2.091160 -2.192480 -6.469440 -0.000000 -176.872000 1.640380 -2.690310 39.081100 -0.000007 -0.000012 0.189199 -0.562942 18.577300 40.985400 -0.000006 -0.000013 3.172630 9.987400 -72.031100 11.754300 -0.000000 0.000003 -0.000445 0.174808 -9.486270 -2.192510 6.469440 -0.000001 -175.775000 4.799520 -178.532000 -39.081100 -0.002282 -0.040193 0.013848 -0.051409 11.556500 -40.985400 0.000008 0.000006 -2.667460 1.134480 -68.225200 -11.754300 -0.000006 -0.000006 -0.010164 0.272523 -5.501170
0.000000 0.000000 0.000000 0.000000 0.000000 -0.000000 -0.068722 92.986100 0.166579 87.140300 0.643385 -0.134610 15.735700 0.000005 -0.000001 71.677200 87.676500 -70.012100 8.984550 -0.406207 -0.000000 -3.329570 -1.621290 3.284160 16.377300 -0.000001 -0.000001 3.225420 0.460814 -4.541700 6.456720 -0.000001 -0.000000 0.744990 -1.941810 -5.183460 12.994200 -0.242716 4.980390 -92.781600 8.039980 -70.843800 5.348090 -0.000007 -0.000001 -67.425200 9.450830 2.812830 24.328600 0.000019 0.000005 22.258400 27.020500 -42.015000 22.291600 -0.000001 0.000005 -0.763127 5.009230 7.122050 12.994500 -0.242716 -4.980390 88.486500 4.932910 -72.919900 -5.348130 -0.000001 -0.000004 -70.652200 30.086400 -3.738550 -24.328900 0.000322 -0.000009 2.145500 6.923990 -17.271300 -22.291500 -0.000108 -0.000004 1.597050 5.227290 2.025510 -2.192480 -6.469440 -0.000000 -176.749000 1.633650 -2.862860 39.081100 -0.000007 -0.000012 0.186896 -0.556174 18.574700 40.985400 -0.000006 -0.000013 3.061900 10.103100 -71.972800 11.754300 -0.000000 0.000003 -0.000404 0.174167 -9.512310 -2.192510 6.469440 -0.000001 -175.646000 4.742190 -178.682000 -39.081100 -0.002282 -0.040193 0.014561 -0.055017 11.531800 -40.985400 0.000008 0.000006 -2.621380 0.976970 -68.188000 -11.754300 -0.000006 -0.000006 -0.010258 0.273225 -5.472470
